<svg id="visual" viewBox="0 0 900 600" width="900" height="600" xmlns="http://www.w3.org/2000/svg" xmlns:xlink="http://www.w3.org/1999/xlink" version="1.1"><rect x="0" y="0" width="900" height="600" fill="#000000"></rect><defs><linearGradient id="grad1_0" x1="33.3%" y1="100%" x2="100%" y2="0%"><stop offset="20%" stop-color="#ac00da" stop-opacity="1"></stop><stop offset="80%" stop-color="#ac00da" stop-opacity="1"></stop></linearGradient></defs><defs><linearGradient id="grad1_1" x1="33.3%" y1="100%" x2="100%" y2="0%"><stop offset="20%" stop-color="#ac00da" stop-opacity="1"></stop><stop offset="80%" stop-color="#9900c8" stop-opacity="1"></stop></linearGradient></defs><defs><linearGradient id="grad1_2" x1="33.3%" y1="100%" x2="100%" y2="0%"><stop offset="20%" stop-color="#8700b6" stop-opacity="1"></stop><stop offset="80%" stop-color="#9900c8" stop-opacity="1"></stop></linearGradient></defs><defs><linearGradient id="grad1_3" x1="33.3%" y1="100%" x2="100%" y2="0%"><stop offset="20%" stop-color="#8700b6" stop-opacity="1"></stop><stop offset="80%" stop-color="#7400a5" stop-opacity="1"></stop></linearGradient></defs><defs><linearGradient id="grad1_4" x1="33.3%" y1="100%" x2="100%" y2="0%"><stop offset="20%" stop-color="#620094" stop-opacity="1"></stop><stop offset="80%" stop-color="#7400a5" stop-opacity="1"></stop></linearGradient></defs><defs><linearGradient id="grad1_5" x1="33.3%" y1="100%" x2="100%" y2="0%"><stop offset="20%" stop-color="#620094" stop-opacity="1"></stop><stop offset="80%" stop-color="#4f0083" stop-opacity="1"></stop></linearGradient></defs><defs><linearGradient id="grad1_6" x1="33.3%" y1="100%" x2="100%" y2="0%"><stop offset="20%" stop-color="#3c0072" stop-opacity="1"></stop><stop offset="80%" stop-color="#4f0083" stop-opacity="1"></stop></linearGradient></defs><defs><linearGradient id="grad1_7" x1="33.3%" y1="100%" x2="100%" y2="0%"><stop offset="20%" stop-color="#3c0072" stop-opacity="1"></stop><stop offset="80%" stop-color="#000000" stop-opacity="1"></stop></linearGradient></defs><defs><linearGradient id="grad2_0" x1="0%" y1="100%" x2="66.7%" y2="0%"><stop offset="20%" stop-color="#ac00da" stop-opacity="1"></stop><stop offset="80%" stop-color="#ac00da" stop-opacity="1"></stop></linearGradient></defs><defs><linearGradient id="grad2_1" x1="0%" y1="100%" x2="66.7%" y2="0%"><stop offset="20%" stop-color="#9900c8" stop-opacity="1"></stop><stop offset="80%" stop-color="#ac00da" stop-opacity="1"></stop></linearGradient></defs><defs><linearGradient id="grad2_2" x1="0%" y1="100%" x2="66.7%" y2="0%"><stop offset="20%" stop-color="#9900c8" stop-opacity="1"></stop><stop offset="80%" stop-color="#8700b6" stop-opacity="1"></stop></linearGradient></defs><defs><linearGradient id="grad2_3" x1="0%" y1="100%" x2="66.7%" y2="0%"><stop offset="20%" stop-color="#7400a5" stop-opacity="1"></stop><stop offset="80%" stop-color="#8700b6" stop-opacity="1"></stop></linearGradient></defs><defs><linearGradient id="grad2_4" x1="0%" y1="100%" x2="66.7%" y2="0%"><stop offset="20%" stop-color="#7400a5" stop-opacity="1"></stop><stop offset="80%" stop-color="#620094" stop-opacity="1"></stop></linearGradient></defs><defs><linearGradient id="grad2_5" x1="0%" y1="100%" x2="66.7%" y2="0%"><stop offset="20%" stop-color="#4f0083" stop-opacity="1"></stop><stop offset="80%" stop-color="#620094" stop-opacity="1"></stop></linearGradient></defs><defs><linearGradient id="grad2_6" x1="0%" y1="100%" x2="66.7%" y2="0%"><stop offset="20%" stop-color="#4f0083" stop-opacity="1"></stop><stop offset="80%" stop-color="#3c0072" stop-opacity="1"></stop></linearGradient></defs><defs><linearGradient id="grad2_7" x1="0%" y1="100%" x2="66.7%" y2="0%"><stop offset="20%" stop-color="#000000" stop-opacity="1"></stop><stop offset="80%" stop-color="#3c0072" stop-opacity="1"></stop></linearGradient></defs><g transform="translate(900, 600)"><path d="M-513.8 0C-521.8 -43.3 -529.9 -86.6 -500.9 -114.3C-471.9 -142 -405.9 -154.1 -380.2 -183.1C-354.5 -212.1 -369.1 -257.9 -351 -279.9C-333 -302 -282.3 -300.1 -250 -313.5C-217.7 -326.9 -203.9 -355.5 -182.7 -379.3C-161.5 -403.1 -132.9 -422 -101.2 -443.6C-69.6 -465.2 -34.8 -489.5 0 -513.8L0 0Z" fill="#33006a"></path><path d="M-449.6 0C-456.6 -37.9 -463.7 -75.8 -438.3 -100C-412.9 -124.3 -355.2 -134.9 -332.7 -160.2C-310.2 -185.6 -323 -225.7 -307.2 -245C-291.4 -264.2 -247 -262.6 -218.8 -274.3C-190.5 -286 -178.4 -311.1 -159.8 -331.9C-141.3 -352.7 -116.3 -369.2 -88.6 -388.1C-60.9 -407 -30.4 -428.3 0 -449.6L0 0Z" fill="#46007b"></path><path d="M-385.3 0C-391.4 -32.5 -397.4 -65 -375.7 -85.7C-353.9 -106.5 -304.4 -115.6 -285.2 -137.3C-265.9 -159.1 -276.8 -193.5 -263.3 -210C-249.7 -226.5 -211.7 -225.1 -187.5 -235.1C-163.3 -245.2 -152.9 -266.7 -137 -284.5C-121.1 -302.3 -99.7 -316.5 -75.9 -332.7C-52.2 -348.9 -26.1 -367.1 0 -385.3L0 0Z" fill="#59008b"></path><path d="M-321.1 0C-326.2 -27.1 -331.2 -54.1 -313.1 -71.5C-295 -88.8 -253.7 -96.3 -237.6 -114.4C-221.6 -132.5 -230.7 -161.2 -219.4 -175C-208.1 -188.7 -176.4 -187.6 -156.3 -195.9C-136.1 -204.3 -127.4 -222.2 -114.2 -237.1C-100.9 -251.9 -83.1 -263.7 -63.3 -277.2C-43.5 -290.7 -21.7 -305.9 0 -321.1L0 0Z" fill="#6b009c"></path><path d="M-256.9 0C-260.9 -21.7 -264.9 -43.3 -250.5 -57.2C-236 -71 -203 -77.1 -190.1 -91.5C-177.2 -106 -184.5 -129 -175.5 -140C-166.5 -151 -141.1 -150.1 -125 -156.8C-108.9 -163.5 -101.9 -177.8 -91.3 -189.7C-80.7 -201.5 -66.5 -211 -50.6 -221.8C-34.8 -232.6 -17.4 -244.7 0 -256.9L0 0Z" fill="#7e00ae"></path><path d="M-192.7 0C-195.7 -16.2 -198.7 -32.5 -187.8 -42.9C-177 -53.3 -152.2 -57.8 -142.6 -68.7C-132.9 -79.5 -138.4 -96.7 -131.6 -105C-124.9 -113.2 -105.9 -112.5 -93.8 -117.6C-81.7 -122.6 -76.5 -133.3 -68.5 -142.2C-60.5 -151.2 -49.8 -158.2 -38 -166.3C-26.1 -174.4 -13 -183.6 0 -192.7L0 0Z" fill="#9000bf"></path><path d="M-128.4 0C-130.5 -10.8 -132.5 -21.7 -125.2 -28.6C-118 -35.5 -101.5 -38.5 -95.1 -45.8C-88.6 -53 -92.3 -64.5 -87.8 -70C-83.2 -75.5 -70.6 -75 -62.5 -78.4C-54.4 -81.7 -51 -88.9 -45.7 -94.8C-40.4 -100.8 -33.2 -105.5 -25.3 -110.9C-17.4 -116.3 -8.7 -122.4 0 -128.4L0 0Z" fill="#a300d1"></path><path d="M-64.2 0C-65.2 -5.4 -66.2 -10.8 -62.6 -14.3C-59 -17.8 -50.7 -19.3 -47.5 -22.9C-44.3 -26.5 -46.1 -32.2 -43.9 -35C-41.6 -37.7 -35.3 -37.5 -31.3 -39.2C-27.2 -40.9 -25.5 -44.4 -22.8 -47.4C-20.2 -50.4 -16.6 -52.7 -12.7 -55.4C-8.7 -58.1 -4.3 -61.2 0 -64.2L0 0Z" fill="#ac00da"></path></g><g transform="translate(0, 0)"><path d="M513.8 0C525.2 44.3 536.5 88.7 500.9 114.3C465.3 140 382.7 147 347.8 167.5C312.9 187.9 325.6 221.9 325.2 259.4C324.9 296.9 311.3 338 281.8 353.4C252.3 368.7 206.8 358.3 173.6 360.4C140.3 362.4 119.2 377 92.3 404.6C65.5 432.2 32.7 473 0 513.8L0 0Z" fill="#33006a"></path><path d="M449.6 0C459.5 38.8 469.5 77.6 438.3 100C407.1 122.5 334.9 128.6 304.3 146.5C273.7 164.4 284.9 194.1 284.6 227C284.3 259.8 272.4 295.8 246.6 309.2C220.8 322.7 181 313.5 151.9 315.3C122.7 317.1 104.3 329.8 80.8 354C57.3 378.2 28.6 413.9 0 449.6L0 0Z" fill="#46007b"></path><path d="M385.3 0C393.9 33.2 402.4 66.5 375.7 85.7C349 105 287 110.3 260.8 125.6C234.6 141 244.2 166.4 243.9 194.5C243.6 222.7 233.5 253.5 211.4 265C189.2 276.6 155.1 268.8 130.2 270.3C105.2 271.8 89.4 282.7 69.3 303.4C49.1 324.2 24.5 354.8 0 385.3L0 0Z" fill="#59008b"></path><path d="M321.1 0C328.2 27.7 335.3 55.4 313.1 71.5C290.8 87.5 239.2 91.9 217.4 104.7C195.5 117.5 203.5 138.7 203.3 162.1C203 185.6 194.6 211.3 176.1 220.9C157.7 230.5 129.3 224 108.5 225.2C87.7 226.5 74.5 235.6 57.7 252.9C40.9 270.1 20.5 295.6 0 321.1L0 0Z" fill="#6b009c"></path><path d="M256.9 0C262.6 22.2 268.3 44.3 250.5 57.2C232.6 70 191.3 73.5 173.9 83.7C156.4 94 162.8 110.9 162.6 129.7C162.4 148.4 155.7 169 140.9 176.7C126.2 184.4 103.4 179.2 86.8 180.2C70.1 181.2 59.6 188.5 46.2 202.3C32.7 216.1 16.4 236.5 0 256.9L0 0Z" fill="#7e00ae"></path><path d="M192.7 0C196.9 16.6 201.2 33.2 187.8 42.9C174.5 52.5 143.5 55.1 130.4 62.8C117.3 70.5 122.1 83.2 122 97.3C121.8 111.3 116.7 126.8 105.7 132.5C94.6 138.3 77.6 134.4 65.1 135.1C52.6 135.9 44.7 141.4 34.6 151.7C24.5 162.1 12.3 177.4 0 192.7L0 0Z" fill="#9000bf"></path><path d="M128.4 0C131.3 11.1 134.1 22.2 125.2 28.6C116.3 35 95.7 36.8 86.9 41.9C78.2 47 81.4 55.5 81.3 64.8C81.2 74.2 77.8 84.5 70.5 88.3C63.1 92.2 51.7 89.6 43.4 90.1C35.1 90.6 29.8 94.2 23.1 101.1C16.4 108.1 8.2 118.3 0 128.4L0 0Z" fill="#a300d1"></path><path d="M64.2 0C65.6 5.5 67.1 11.1 62.6 14.3C58.2 17.5 47.8 18.4 43.5 20.9C39.1 23.5 40.7 27.7 40.7 32.4C40.6 37.1 38.9 42.3 35.2 44.2C31.5 46.1 25.9 44.8 21.7 45C17.5 45.3 14.9 47.1 11.5 50.6C8.2 54 4.1 59.1 0 64.2L0 0Z" fill="#ac00da"></path></g></svg>